<?xml version="1.0" standalone="no"?><!DOCTYPE svg PUBLIC "-//W3C//DTD SVG 1.1//EN" "http://www.w3.org/Graphics/SVG/1.1/DTD/svg11.dtd"><svg  width="128" height="128" viewBox="0 0 1024 1024" version="1.1" xmlns="http://www.w3.org/2000/svg"><path  d="M175.104 518.656h120.32v134.656H175.104zM729.088 303.104h120.32v350.72h-120.32zM957.44 28.672H66.56c-36.864 0-66.56 29.696-66.56 66.56v623.104c0 36.864 29.696 66.56 66.56 66.56h890.88c36.864 0 66.56-29.696 66.56-66.56V95.232c0-36.864-29.696-66.56-66.56-66.56z m0 667.648c0 12.288-9.728 22.016-22.016 22.016H89.088c-12.288 0-22.016-9.728-22.016-22.016V117.76c0-12.288 9.728-22.016 22.016-22.016h845.824c12.288 0 22.016 9.728 22.016 22.016v578.56zM344.064 410.624h120.32v242.688H344.064zM536.576 195.072h120.32v458.752h-120.32z" /></svg>